<mxfile host="app.diagrams.net" agent="Mozilla/5.0 (Macintosh; Intel Mac OS X 10_15_7) AppleWebKit/537.36 (KHTML, like Gecko) Chrome/139.0.0.0 Safari/537.36" version="28.2.0">
  <diagram name="Page-1" id="GOJIoMpqcOCyXgW9Xyqd">
    <mxGraphModel dx="610" dy="435" grid="1" gridSize="10" guides="1" tooltips="1" connect="1" arrows="1" fold="1" page="1" pageScale="1" pageWidth="850" pageHeight="1100" math="0" shadow="0">
      <root>
        <mxCell id="0" />
        <mxCell id="1" parent="0" />
        <mxCell id="EmyhZCRgTg_aCd7K5Zhr-6" value="" style="rounded=0;whiteSpace=wrap;html=1;movable=1;resizable=1;rotatable=1;deletable=1;editable=1;locked=0;connectable=1;" vertex="1" parent="1">
          <mxGeometry x="100" y="40" width="630" height="410" as="geometry" />
        </mxCell>
        <mxCell id="EmyhZCRgTg_aCd7K5Zhr-2" value="" style="endArrow=none;html=1;rounded=0;" edge="1" parent="1">
          <mxGeometry width="50" height="50" relative="1" as="geometry">
            <mxPoint x="540" y="350" as="sourcePoint" />
            <mxPoint x="540" y="190" as="targetPoint" />
          </mxGeometry>
        </mxCell>
        <mxCell id="EmyhZCRgTg_aCd7K5Zhr-7" value="" style="endArrow=none;html=1;rounded=0;" edge="1" parent="1">
          <mxGeometry width="50" height="50" relative="1" as="geometry">
            <mxPoint x="340" y="340" as="sourcePoint" />
            <mxPoint x="340" y="180" as="targetPoint" />
          </mxGeometry>
        </mxCell>
        <mxCell id="EmyhZCRgTg_aCd7K5Zhr-17" style="edgeStyle=orthogonalEdgeStyle;rounded=0;orthogonalLoop=1;jettySize=auto;html=1;exitX=1;exitY=0.5;exitDx=0;exitDy=0;entryX=0;entryY=0.5;entryDx=0;entryDy=0;" edge="1" parent="1" source="EmyhZCRgTg_aCd7K5Zhr-9" target="EmyhZCRgTg_aCd7K5Zhr-10">
          <mxGeometry relative="1" as="geometry" />
        </mxCell>
        <mxCell id="EmyhZCRgTg_aCd7K5Zhr-9" value="handler" style="rounded=0;whiteSpace=wrap;html=1;" vertex="1" parent="1">
          <mxGeometry x="190" y="240" width="120" height="60" as="geometry" />
        </mxCell>
        <mxCell id="EmyhZCRgTg_aCd7K5Zhr-18" style="edgeStyle=orthogonalEdgeStyle;rounded=0;orthogonalLoop=1;jettySize=auto;html=1;entryX=0;entryY=0.5;entryDx=0;entryDy=0;" edge="1" parent="1" source="EmyhZCRgTg_aCd7K5Zhr-10" target="EmyhZCRgTg_aCd7K5Zhr-11">
          <mxGeometry relative="1" as="geometry" />
        </mxCell>
        <mxCell id="EmyhZCRgTg_aCd7K5Zhr-10" value="domain" style="rounded=0;whiteSpace=wrap;html=1;" vertex="1" parent="1">
          <mxGeometry x="377.5" y="240" width="120" height="60" as="geometry" />
        </mxCell>
        <mxCell id="EmyhZCRgTg_aCd7K5Zhr-11" value="repository" style="rounded=0;whiteSpace=wrap;html=1;" vertex="1" parent="1">
          <mxGeometry x="570" y="240" width="120" height="60" as="geometry" />
        </mxCell>
        <mxCell id="EmyhZCRgTg_aCd7K5Zhr-13" style="edgeStyle=orthogonalEdgeStyle;rounded=0;orthogonalLoop=1;jettySize=auto;html=1;entryX=0;entryY=0.5;entryDx=0;entryDy=0;" edge="1" parent="1" source="EmyhZCRgTg_aCd7K5Zhr-12" target="EmyhZCRgTg_aCd7K5Zhr-9">
          <mxGeometry relative="1" as="geometry" />
        </mxCell>
        <mxCell id="EmyhZCRgTg_aCd7K5Zhr-14" value="request" style="edgeLabel;html=1;align=center;verticalAlign=middle;resizable=0;points=[];" vertex="1" connectable="0" parent="EmyhZCRgTg_aCd7K5Zhr-13">
          <mxGeometry x="0.12" y="-2" relative="1" as="geometry">
            <mxPoint y="-2" as="offset" />
          </mxGeometry>
        </mxCell>
        <mxCell id="EmyhZCRgTg_aCd7K5Zhr-12" value="user" style="shape=umlActor;verticalLabelPosition=bottom;verticalAlign=top;html=1;outlineConnect=0;" vertex="1" parent="1">
          <mxGeometry x="40" y="240" width="30" height="60" as="geometry" />
        </mxCell>
        <mxCell id="EmyhZCRgTg_aCd7K5Zhr-19" value="core of business logic, eg - wise: transaction filtering, fraud detection,refund logic, cancellation logic, hellofresh - status of delivery calculation, rider status, order placed" style="text;html=1;align=center;verticalAlign=middle;whiteSpace=wrap;rounded=0;" vertex="1" parent="1">
          <mxGeometry x="340" y="140" width="195" height="100" as="geometry" />
        </mxCell>
        <mxCell id="EmyhZCRgTg_aCd7K5Zhr-20" value="database functions, reading files into memory, getting infromation from api, storing in s3 etc" style="text;html=1;align=center;verticalAlign=middle;whiteSpace=wrap;rounded=0;" vertex="1" parent="1">
          <mxGeometry x="557.5" y="150" width="145" height="90" as="geometry" />
        </mxCell>
        <mxCell id="EmyhZCRgTg_aCd7K5Zhr-21" value="api routes definition, input validation/sanitization, json formatting, http error handling, authentication" style="text;html=1;align=center;verticalAlign=middle;whiteSpace=wrap;rounded=0;" vertex="1" parent="1">
          <mxGeometry x="175" y="170" width="150" height="70" as="geometry" />
        </mxCell>
      </root>
    </mxGraphModel>
  </diagram>
</mxfile>
